# xmcd CD database file
#
# Track frame offsets:
#	150
#	15615
#	42405
#	74382
#	104241
#	133825
#	147565
#	178678
#	197921
#	225300
#	267395
#	289442
#
# Disc length: 4046 seconds
#
# Revision: 0
# Processed by: cddbd v1.5.2PL0 Copyright (c) Steve Scherf et al.
# Submitted via: CDex 1.51
#
DISCID=c40fcc0c
DTITLE=Steve Smith And Vital Information - Vitalization
DYEAR=2007
DGENRE=Jazz
TTITLE0=Interwoven Rhythms-Synchronous
TTITLE1=Get Serious
TTITLE2=The Trouble With
TTITLE3=The Bottom Line
TTITLE4=Seven and a Half
TTITLE5=Interwoven Rhythms-Dialogue
TTITLE6=J Ben Jazz
TTITLE7=Groove Time
TTITLE8=You Know What I Mean
TTITLE9=The Closer
TTITLE10=Jimmy Jive
TTITLE11=Positano
EXTD=YEAR: 2007
EXTT0=
EXTT1=
EXTT2=
EXTT3=
EXTT4=
EXTT5=
EXTT6=
EXTT7=
EXTT8=
EXTT9=
EXTT10=
EXTT11=
PLAYORDER=
